<?xml version="1.0" encoding="utf-8"?>
<!-- Generator: Adobe Illustrator 16.0.4, SVG Export Plug-In . SVG Version: 6.00 Build 0)  -->
<!DOCTYPE svg PUBLIC "-//W3C//DTD SVG 1.1//EN" "http://www.w3.org/Graphics/SVG/1.1/DTD/svg11.dtd">
<svg version="1.1" id="Layer_1" xmlns="http://www.w3.org/2000/svg" xmlns:xlink="http://www.w3.org/1999/xlink" x="0px" y="0px"
	 width="100px" height="100px" viewBox="0 0 100 100" enable-background="new 0 0 100 100" xml:space="preserve">
<polygon points="18.054,57.163 24.19,46.319 29.618,22.53 29.622,22.532 31.587,24.994 26.534,47.237 20.222,58.388 "/>
<path d="M19.814,34.974c-1.865-0.792-4.051-2.646-4.031-5.817l0,0c-0.04-2.895,1.436-4.816,3.069-5.683l0,0
	c1.621-0.892,4.108-0.983,4.108-0.983l0,0c0.256,0,0.435,0.01,0.51,0.016l0,0l7.773,0.008l0.343,2.479h-8.255l-0.053-0.002
	c0,0.002-0.092-0.013-0.318-0.013l0,0c-0.603-0.005-1.907,0.106-2.896,0.669l0,0c-0.973,0.591-1.753,1.379-1.791,3.509l0,0
	c0.021,1.498,0.639,2.298,1.558,2.982l0,0c0.919,0.659,2.162,1.019,2.986,1.172l0,0c0.549,0.104,0.871,0.12,0.875,0.12l0,0
	l-0.151,2.485C23.461,35.909,21.705,35.814,19.814,34.974L19.814,34.974z"/>
<path d="M26.966,35.619l1.772-1.749l24.446,27.346l25.477-4.1L61.639,32.462H28.681v-2.487h34.264l20.008,28.98L52.311,63.88
	L26.966,35.619L26.966,35.619z M28.681,32.462v0.002V32.462L28.681,32.462z"/>
<polygon points="51.559,62.182 64.58,19.491 66.962,20.221 53.939,62.911 "/>
<path d="M0,58.038c0.001-10.605,8.592-19.195,19.192-19.196l0,0c10.599,0.001,19.188,8.592,19.191,19.196l0,0
	c-0.002,10.596-8.592,19.188-19.191,19.188l0,0C8.592,77.223,0.001,68.634,0,58.038L0,58.038z M2.49,58.038
	c0.017,9.221,7.479,16.682,16.702,16.701l0,0c9.221-0.021,16.683-7.48,16.697-16.701l0,0c-0.015-9.229-7.477-16.69-16.697-16.705
	l0,0C9.968,41.348,2.506,48.809,2.49,58.038L2.49,58.038z"/>
<circle cx="19.192" cy="58.038" r="2.698"/>
<path d="M61.617,58.038c0.002-10.603,8.595-19.195,19.191-19.198l0,0c10.599,0.003,19.188,8.596,19.189,19.198l0,0
	c-0.002,10.596-8.594,19.188-19.189,19.188l0,0C70.212,77.223,61.619,68.634,61.617,58.038L61.617,58.038z M64.107,58.038
	c0.017,9.223,7.479,16.684,16.701,16.699l0,0c9.221-0.017,16.687-7.478,16.7-16.699l0,0c-0.016-9.231-7.479-16.692-16.7-16.707l0,0
	C71.586,41.346,64.124,48.807,64.107,58.038L64.107,58.038z"/>
<circle cx="80.811" cy="58.038" r="2.698"/>
<circle cx="52.751" cy="61.721" r="2.698"/>
<polygon points="49.879,53.712 51.713,53.362 54.93,70.271 53.094,70.62 "/>
<polygon points="48.41,54.206 48.41,52.336 53.076,52.336 53.076,54.206 "/>
<polygon points="51.521,70.819 51.521,68.952 56.188,68.952 56.188,70.819 "/>
<path d="M59.167,18.15c0,0-1.619,0.324-1.619,1.294s0.968,1.188,1.458,1.133c0.227-0.025,5.824-0.163,8.412,0.485
	c2.591,0.647,3.885,1.134,4.693-0.16c0.81-1.296,0.972-4.046-2.426-3.887C66.284,17.179,59.167,18.15,59.167,18.15z"/>
</svg>
