<?xml version="1.0" encoding="utf-8"?>
<!-- Generator: Adobe Illustrator 16.0.4, SVG Export Plug-In . SVG Version: 6.00 Build 0)  -->
<!DOCTYPE svg PUBLIC "-//W3C//DTD SVG 1.1//EN" "http://www.w3.org/Graphics/SVG/1.1/DTD/svg11.dtd">
<svg version="1.1" id="Layer_1" xmlns="http://www.w3.org/2000/svg" xmlns:xlink="http://www.w3.org/1999/xlink" x="0px" y="0px"
	 width="100px" height="100px" viewBox="0 0 100 100" enable-background="new 0 0 100 100" xml:space="preserve">
<path d="M83.27,40.894c-17.082,7.985-12.928,9.576-25.979,12.737c0.486,1.381,0.5,2.59,1.257,4.608
	c11.437-2.787,8.228-6.183,30.984-15.666C88.557,41.254,85.693,40.271,83.27,40.894z"/>
<path d="M82.998,39.311c1.912-0.894,4.062-1.848,6.534-2.877c-2.068-2.799-7.347-2.982-12.979-2.23
	c-7.314,0.977-15.234,3.531-17.511,3.984c-4.021,0.804-8.917,2.851-11.916,2.412c-1.056-0.153-1.689-0.85-2.125-1.843
	c-0.801-1.83-0.918-4.686-1.677-7.149c-1.169-3.802-5.008-4.936-8.407-4.277c-2.183,0.423-3.07,1.645-6.873,2.01
	c-6.514-0.874-16.703-1.022-16.703-1.022c3.729,1.535,12.539,2.814,15.9,3.619c3.363,0.805,3.99,6.142,4.606,11.003
	c0.711,5.616,1.647,11.926,5.668,17.409c4.021,5.483,8.823,6.07,12.535,5.979c2.039-0.052,6.677,3.044,9.505,5.052
	c3.23,2.294,9.577,8.335,10.454,6.726c0.878-1.608-1.388-3.069-7.896-11.844c-3.184-4.292-4.596-6.967-5.322-8.898
	c-0.758-2.018-0.771-3.229-1.257-4.608C69.148,50.108,65.917,47.296,82.998,39.311z"/>
</svg>
