<?xml version="1.0" encoding="utf-8"?>
<!-- Generator: Adobe Illustrator 16.0.4, SVG Export Plug-In . SVG Version: 6.00 Build 0)  -->
<!DOCTYPE svg PUBLIC "-//W3C//DTD SVG 1.1//EN" "http://www.w3.org/Graphics/SVG/1.1/DTD/svg11.dtd">
<svg version="1.1" id="Capa_1" xmlns="http://www.w3.org/2000/svg" xmlns:xlink="http://www.w3.org/1999/xlink" x="0px" y="0px"
	 width="100px" height="100px" viewBox="0 0 100 100" enable-background="new 0 0 100 100" xml:space="preserve">
<path id="briefcase-8-icon" d="M38.851,22.33H32.67v-6.295c0-2.42,1.962-4.383,4.382-4.383h25.895c2.419,0,4.381,1.963,4.381,4.383
	v6.295h-6.178v-3.514c0-0.771-0.625-1.396-1.396-1.396H40.245c-0.77,0-1.395,0.625-1.395,1.396V22.33L38.851,22.33z M61.155,46.624
	v5.769h29.628V80.35H9.214V52.393h29.627v-5.769H7.567V26.449h84.865v20.175H61.155z M55.595,44.118H44.403v10.849h11.191V44.118z"
	/>
</svg>
