<?xml version="1.0" encoding="utf-8"?>
<!-- Generator: Adobe Illustrator 16.0.4, SVG Export Plug-In . SVG Version: 6.00 Build 0)  -->
<!DOCTYPE svg PUBLIC "-//W3C//DTD SVG 1.1//EN" "http://www.w3.org/Graphics/SVG/1.1/DTD/svg11.dtd">
<svg version="1.1" id="Capa_1" xmlns="http://www.w3.org/2000/svg" xmlns:xlink="http://www.w3.org/1999/xlink" x="0px" y="0px"
	 width="100px" height="100px" viewBox="0 0 100 100" enable-background="new 0 0 100 100" xml:space="preserve">
<g id="Your_Icon">
	<path d="M69.182,29.777v53.118h-4.427l0.118-69.644h-26.56l-0.118,69.644h-4.426V37.156H8.686v54.592h82.628V29.777H69.182z
		 M73.607,35.68h13.28v16.231h-13.28V35.68z M73.607,57.812h13.28v16.231h-13.28V57.812z M42.621,17.975h17.707v7.378H42.621V17.975
		z M42.621,32.729h17.707v7.377H42.621V32.729z M42.621,47.484h17.707v7.378H42.621V47.484z M42.621,62.238h17.707v7.379H42.621
		V62.238z M13.112,43.058h5.902v10.328h-5.902V43.058z M23.441,43.058h5.902v10.328h-5.902V43.058z M13.112,60.763h5.902v10.329
		h-5.902V60.763z M23.441,60.763h5.902v10.329h-5.902V60.763z"/>
</g>
</svg>
