<?xml version="1.0" encoding="utf-8"?>
<!-- Generator: Adobe Illustrator 16.0.4, SVG Export Plug-In . SVG Version: 6.00 Build 0)  -->
<!DOCTYPE svg PUBLIC "-//W3C//DTD SVG 1.1//EN" "http://www.w3.org/Graphics/SVG/1.1/DTD/svg11.dtd">
<svg version="1.1" id="Capa_1" xmlns="http://www.w3.org/2000/svg" xmlns:xlink="http://www.w3.org/1999/xlink" x="0px" y="0px"
	 width="100px" height="100px" viewBox="0 0 100 100" enable-background="new 0 0 100 100" xml:space="preserve">
<g id="Captions">
</g>
<g id="Your_Icon">
	<path d="M8.384,50.208c0,0-0.438-0.795,0.623-1.41c1.06-0.613-1.232-0.446,2.573-3.869c0,0,1.955-3.641,3.728-4.375
		c0.117-0.049,0.232-0.084,0.346-0.105c1.854-0.346-0.773-5.118,16.171-8.666c0,0,0.453-3.085,0.983-3.348
		c0.531-0.263,0.531-0.263,0.615,0.708c0.085,0.971,0.361-2.027,0.625-2.026s0.085,0.706,0.878,1.149
		c0.792,0.443,1.249-3.434,1.249-3.434s-0.184,1.586,0.962,1.944c1.145,0.357,1.51-2.728,1.51-2.728s0.962,1.856,1.667,1.947
		c0.706,0.091,1.066-1.936,1.066-1.936s0.522,1.589,1.316,1.593l1.679-1.139c0,0,0.609,2.208,1.316,1.945l1.414-0.964
		c0,0-0.361,2.291,0.698,2.031c1.059-0.26,1.505-1.582,1.505-1.582s0.967,0.622,1.404,1.857c0.435,1.236,1.415-1.229,1.415-1.229
		l1.579,1.858l1.328-0.964c0,0-1.248,3.345,3.62-1.31c0,0-0.8,1.497,1.851,0.097c0,0,1.853,0.007,2.383-0.256
		c0.529-0.263,6.435,0.465,7.044,2.144c0,0,3.675,7.421-2.071,11.456c0,0-0.179,0.615-4.322,0.247c0,0,0.78,3.09,12.87,1.021
		c0,0,13.709-10.527,15.2-8.142c1.489,2.387,1.822,7.415-0.762,13.93c0,0,3.825,13.771,0.558,15.256c0,0-2.739,1.312-10.299-4.803
		c0,0-6.861-4.082-8.095-4.263c0,0-7.23-0.206-11.119,1.982c0,0,6.441-0.855,7.565,4.705c0,0,0.854,6.88-4.885,8.797
		c-5.74,1.92-10.479-3.921-10.74-4.715c-0.263-0.795-0.274,2.292-0.274,2.292s-0.714,2.025-2.723-2.834c0,0-0.103,4.057-1.669-1.239
		c0,0-9.261,0.757-9.875-0.216c0,0,5.106,1.872,4.299,5.57c0,0-0.013,3.265,0.07,4.587s-0.446,1.41,0.164,3.175
		c0.611,1.768-10.472-5.419-11.15-12.124c0,0-11.289,0.22-14.443-4.907c0,0-9.689-2.594-10.467-6.652
		C7.762,51.264,7.321,51.085,8.384,50.208z"/>
</g>
</svg>
