<?xml version="1.0" encoding="utf-8"?>
<!-- Generator: Adobe Illustrator 16.0.4, SVG Export Plug-In . SVG Version: 6.00 Build 0)  -->
<!DOCTYPE svg PUBLIC "-//W3C//DTD SVG 1.1//EN" "http://www.w3.org/Graphics/SVG/1.1/DTD/svg11.dtd">
<svg version="1.1" id="Layer_1" xmlns="http://www.w3.org/2000/svg" xmlns:xlink="http://www.w3.org/1999/xlink" x="0px" y="0px"
	 width="100px" height="99.775px" viewBox="0 0 100 99.775" enable-background="new 0 0 100 99.775" xml:space="preserve">
<path fill="#010101" d="M26.788,34.61c-6.804,0-12.34-5.536-12.34-12.34c0-6.804,5.536-12.339,12.34-12.339
	c6.805,0,12.34,5.535,12.34,12.339C39.128,29.075,33.593,34.61,26.788,34.61z M26.788,12.334c-5.479,0-9.938,4.458-9.938,9.937
	s4.458,9.938,9.938,9.938s9.937-4.458,9.937-9.938S32.267,12.334,26.788,12.334z"/>
<g>
	<path fill="#010101" d="M43.17,81.205c-4.168-4.131,0-7.194,0-7.194s9.004-7.377,12.238-10.301c2.615-2.364,0-4.194,0-4.194
		l-8.854-6.433l-0.008,0.013c0,0-6.002-4.645-9.209-7.196c-4.699-3.739-7.359,0-7.359,0L9.953,67.031v22.813h41.365
		C49.192,87.515,45.522,83.537,43.17,81.205z"/>
	<path fill="#010101" d="M73.533,30.204c-5.09-5.089-9.357,0-9.357,0L47.702,51.59c3.295,2.321,9.8,6.925,10.891,7.8
		c2.719,2.179,0.206,4.869,0.206,4.869S47.875,73.63,46.59,74.915s0,2.468,0,2.468l21.053,12.463h22.404V50.581
		C90.047,50.581,78.621,35.292,73.533,30.204z"/>
</g>
</svg>
