<?xml version="1.0" encoding="utf-8"?>
<!-- Generator: Adobe Illustrator 16.0.4, SVG Export Plug-In . SVG Version: 6.00 Build 0)  -->
<!DOCTYPE svg PUBLIC "-//W3C//DTD SVG 1.1//EN" "http://www.w3.org/Graphics/SVG/1.1/DTD/svg11.dtd">
<svg version="1.1" id="Layer_1" xmlns="http://www.w3.org/2000/svg" xmlns:xlink="http://www.w3.org/1999/xlink" x="0px" y="0px"
	 width="100px" height="100px" viewBox="0 0 100 100" enable-background="new 0 0 100 100" xml:space="preserve">
<path d="M23.125,83.43h-6.112c-4.233-0.007-8.32-3.107-8.325-8.511c0,0,0.004-38.585,0-38.702c0.004-4.781,3.993-8.413,8.325-8.416
	h6.112V83.43L23.125,83.43z"/>
<path d="M61.588,27.896V19.9c0.021-2.88-2.531-4.722-5.643-4.7c0,0-11.892-0.022-11.849,0c-3.097-0.022-5.695,1.819-5.69,4.7v7.996
	H27.263v55.629h45.562V27.896H61.588z M57.402,27.896H42.497v-8.229h14.905V27.896z"/>
<path d="M76.917,83.43h6.112c4.199-0.008,8.287-3.107,8.275-8.512c0,0,0.014-38.585,0-38.702c0.014-4.781-3.978-8.413-8.275-8.416
	h-6.112V83.43L76.917,83.43z"/>
</svg>
