<?xml version="1.0" encoding="utf-8"?>
<!-- Generator: Adobe Illustrator 16.0.4, SVG Export Plug-In . SVG Version: 6.00 Build 0)  -->
<!DOCTYPE svg PUBLIC "-//W3C//DTD SVG 1.1//EN" "http://www.w3.org/Graphics/SVG/1.1/DTD/svg11.dtd">
<svg version="1.1" id="Layer_1" xmlns="http://www.w3.org/2000/svg" xmlns:xlink="http://www.w3.org/1999/xlink" x="0px" y="0px"
	 width="100px" height="100px" viewBox="0 0 100 100" enable-background="new 0 0 100 100" xml:space="preserve">
<g>
	<g>
		<path fill="#010101" d="M67.343,16.741c-9.68-9.509-25.225-9.371-34.732,0.309c-9.509,9.675-9.371,25.233,0.309,34.732
			c0,0,17.508,16.866,17.682,36.517c-0.174-19.648,17.051-36.824,17.051-36.824C77.161,41.804,77.022,26.246,67.343,16.741z
			 M50.208,44.103c-5.421,0.048-9.855-4.308-9.903-9.738c-0.048-5.431,4.307-9.864,9.729-9.913c5.438-0.048,9.873,4.307,9.92,9.738
			C60.003,39.62,55.648,44.054,50.208,44.103z"/>
	</g>
</g>
</svg>
