<?xml version="1.0" encoding="utf-8"?>
<!-- Generator: Adobe Illustrator 16.0.4, SVG Export Plug-In . SVG Version: 6.00 Build 0)  -->
<!DOCTYPE svg PUBLIC "-//W3C//DTD SVG 1.1//EN" "http://www.w3.org/Graphics/SVG/1.1/DTD/svg11.dtd">
<svg version="1.1" id="Capa_1" xmlns="http://www.w3.org/2000/svg" xmlns:xlink="http://www.w3.org/1999/xlink" x="0px" y="0px"
	 width="100px" height="100px" viewBox="0 0 100 100" enable-background="new 0 0 100 100" xml:space="preserve">
<g id="Captions">
</g>
<g id="Your_Icon">
	<path d="M27.81,41.942v-1.67h1.781c1.646,0,2.99-1.347,2.99-2.988v-16.66c0-1.648-1.343-2.988-2.99-2.988H18.716
		c-1.652,0-2.993,1.34-2.993,2.988v16.659c0,0.958,0.464,1.796,1.167,2.348c0.029,0.022,0.844,0.502,1.285,0.581
		c1.862,0.885,7.43,3.511,8.011,3.783C26.885,44.319,27.81,43.083,27.81,41.942z M29.591,19.52c0.611,0,1.111,0.493,1.111,1.104
		v16.659c0,0.605-0.5,1.104-1.111,1.104H27.81v-13.1c0-1.131-1.166-1.795-1.624-2.044c-0.323-0.176-4.463-2.421-6.9-3.723
		L29.591,19.52L29.591,19.52z"/>
	<path d="M58.706,26.761c0,2.179,0.42,4.048,1.285,5.586c1.759,3.098,4.556,4.408,7.933,4.408c1.71,0,3.213-0.331,4.582-1.03
		c2.712-1.427,4.637-4.606,4.637-8.963v-6.153H58.706V26.761z"/>
	<polygon points="77.143,18.769 77.143,12.616 58.706,12.616 58.706,14.551 56.094,18.769 58.706,18.769 	"/>
	<path d="M50.581,75.676h23.073L56.241,41.743c-0.799,0.515-1.539,1.135-2.217,1.884L43.006,54.629l0,0l0.016-0.007L31.237,42.833
		l-5.953,5.959l17.723,17.751l7.516-7.508L50.581,75.676z"/>
	<path d="M82.495,45.954c-2.435-4.307-6.308-6.117-10.986-6.117h-8.166c-1.43,0-2.776,0.169-4.034,0.521l19.851,38.673H50.581v8.353
		h33.695V53.68C84.276,50.661,83.695,48.072,82.495,45.954z"/>
</g>
</svg>
