<?xml version="1.0" encoding="utf-8"?>
<!-- Generator: Adobe Illustrator 16.0.4, SVG Export Plug-In . SVG Version: 6.00 Build 0)  -->
<!DOCTYPE svg PUBLIC "-//W3C//DTD SVG 1.1//EN" "http://www.w3.org/Graphics/SVG/1.1/DTD/svg11.dtd">
<svg version="1.1" id="Layer_1" xmlns="http://www.w3.org/2000/svg" xmlns:xlink="http://www.w3.org/1999/xlink" x="0px" y="0px"
	 width="100px" height="100px" viewBox="0 0 100 100" enable-background="new 0 0 100 100" xml:space="preserve">
<path d="M88.638,91.803c-1.691,0-3.345-0.397-4.799-1.062c-1.497-0.71-3.188-1.12-4.949-1.12c-1.748,0-3.438,0.41-4.934,1.12
	c-1.475,0.665-3.109,1.062-4.818,1.062c-1.708,0-3.337-0.397-4.795-1.062c-1.492-0.71-3.184-1.12-4.953-1.12
	c-1.746,0-3.437,0.41-4.947,1.12c-1.461,0.665-3.089,1.062-4.796,1.062c-1.71,0-3.344-0.397-4.804-1.062
	c-1.504-0.71-3.187-1.12-4.953-1.12c-1.758,0-3.436,0.41-4.939,1.12c-1.467,0.665-3.1,1.062-4.809,1.062s-3.335-0.397-4.804-1.062
	c-1.497-0.71-3.187-1.12-4.939-1.12c-1.771,0-3.449,0.41-4.946,1.12c-1.465,0.665-3.094,1.062-4.803,1.062v-7.287
	c1.709,0,3.338-0.388,4.804-1.054c1.498-0.69,3.175-1.101,4.946-1.101c1.752,0,3.441,0.408,4.939,1.101
	c1.468,0.666,3.095,1.054,4.804,1.054c1.707,0,3.342-0.388,4.809-1.054c1.504-0.69,3.182-1.101,4.94-1.101
	c1.766,0,3.448,0.408,4.953,1.101c1.46,0.666,3.094,1.054,4.804,1.054c1.707,0,3.335-0.388,4.796-1.054
	c1.511-0.69,3.201-1.101,4.947-1.101c1.771,0,3.461,0.408,4.952,1.101c1.459,0.666,3.087,1.054,4.796,1.054s3.344-0.388,4.817-1.054
	c1.495-0.69,3.187-1.101,4.933-1.101c1.764,0,3.453,0.408,4.95,1.101c1.454,0.666,3.106,1.054,4.8,1.054v7.287H88.638z"/>
<path d="M19.02,49.682c2.609,0,4.729-2.142,4.729-4.774c0-2.635-2.12-4.771-4.729-4.771c-2.603,0-4.722,2.136-4.722,4.771
	C14.296,47.539,16.417,49.682,19.02,49.682z"/>
<path d="M39.785,71.326H26.271c-1.989,0-3.721-1.195-4.498-2.922l-4.997-11.526c-0.1-0.39-0.15-0.784-0.15-1.192
	c0-2.771,2.218-5.006,4.947-5.006l10.979-0.019l7.532-3.456c0.118-0.081,0.429-0.156,0.757-0.156c1.292,0,2.349,1.08,2.349,2.375
	c0,0.804-0.404,1.531-1.006,1.96l-8.197,3.73c-0.541,0.434-1.572,0.489-1.572,0.489h-4.933l4.138,9.283h9.133l0,0
	c0.902,0,1.536,0.314,2.088,0.811l8.957,8.596l0,0c1.242,1.18,1.324,3.159,0.159,4.436c-1.187,1.254-3.149,1.338-4.394,0.164l0,0
	L39.785,71.326z"/>
<path d="M81.896,55.723c0.172,0.297,0.602,0.416,0.992,0.416c0.76,0,1.379-0.628,1.379-1.416c0-0.375-0.182-0.709-0.354-1.021
	c-8.445-16.293-31.242-11.445-34.04-10.384c-0.467,0.176-0.74,0.71-0.74,1.237c0,0.766,0.622,1.396,1.38,1.396
	c0.235,0,0.348-0.021,0.547-0.085C73.431,40.786,80.715,53.662,81.896,55.723z M85.776,57.191L57.176,75.434L31.142,8.197
	C54.442,11.319,84.067,29.618,85.776,57.191z"/>
</svg>
