<?xml version="1.0" encoding="utf-8"?>
<!-- Generator: Adobe Illustrator 16.0.4, SVG Export Plug-In . SVG Version: 6.00 Build 0)  -->
<!DOCTYPE svg PUBLIC "-//W3C//DTD SVG 1.1//EN" "http://www.w3.org/Graphics/SVG/1.1/DTD/svg11.dtd">
<svg version="1.1" id="Layer_1" xmlns="http://www.w3.org/2000/svg" xmlns:xlink="http://www.w3.org/1999/xlink" x="0px" y="0px"
	 width="100px" height="100px" viewBox="0 0 100 100" enable-background="new 0 0 100 100" xml:space="preserve">
<g>
	<path d="M69.521,15.019H36.123c0.139-0.261,0.224-0.585,0.224-0.941c0-0.847-0.467-1.538-1.042-1.538h-7.646
		c-0.575,0-1.041,0.691-1.041,1.538c0,0.358,0.086,0.685,0.226,0.946c-16.555,0.073-15.969,1.228-15.969,19.544v13.03
		c0,19.55,0,19.55,19.549,19.55h24.28l-8.175,19.55l22.339-19.549h0.654c19.607,0,19.548,0.282,19.548-19.549v-13.03
		C89.069,15.019,91.224,15.019,69.521,15.019z M49.974,60.568c-10.555,0-19.106-8.548-19.106-19.101s8.551-19.101,19.106-19.101
		c10.55,0,19.102,8.548,19.102,19.101S60.524,60.568,49.974,60.568z"/>
	<circle cx="49.973" cy="41.468" r="15.259"/>
</g>
</svg>
