<?xml version="1.0" encoding="utf-8"?>
<!-- Generator: Adobe Illustrator 16.0.4, SVG Export Plug-In . SVG Version: 6.00 Build 0)  -->
<!DOCTYPE svg PUBLIC "-//W3C//DTD SVG 1.1//EN" "http://www.w3.org/Graphics/SVG/1.1/DTD/svg11.dtd">
<svg version="1.1" id="Capa_1" xmlns="http://www.w3.org/2000/svg" xmlns:xlink="http://www.w3.org/1999/xlink" x="0px" y="0px"
	 width="100px" height="100px" viewBox="0 0 100 100" enable-background="new 0 0 100 100" xml:space="preserve">
<g id="Layer_2">
</g>
<g id="Layer_1">
</g>
<g id="Layer_3">
	<circle cx="41.328" cy="37.161" r="4.709"/>
	<path d="M65.55,39.475c0.145-23.317-3.315-33.462-7.657-33.489c-4.343-0.027-7.929,10.075-8.072,33.392
		c-0.007,1.211,0.005,2.397,0.015,3.582l-2.852-0.017v0.003l-0.077-0.001l-0.242-0.001l-10.982-0.07
		c-3.544-0.022-5.782,2.855-5.804,6.459l-0.094,15.373c-0.019,2.983,3.93,3.009,3.949,0.024l0.092-14.964l1.255,0.007l-0.24,38.15
		c-0.01,1.547,1.242,2.812,2.792,2.821c1.551,0.011,2.818-1.239,2.827-2.787l0.132-21.489l1.25,0.007l-0.14,21.491
		c-0.009,1.547,1.239,2.812,2.791,2.821c1.549,0.01,2.813-1.239,2.823-2.786l0.25-38.151l0.014-2.249l2.206,0.015
		c-0.004,0.333-0.019,0.652-0.021,0.99c-0.143,23.315,3.266,42.235,7.606,42.262s7.979-18.85,8.122-42.165
		c0.01-1.559,0-3.097-0.019-4.612C65.51,42.575,65.54,41.038,65.55,39.475z"/>
	<path d="M66.309,47.693l0.533,0.003c3.496,0.021,3.524-4.598,0.028-4.62l-0.533-0.003L66.309,47.693z"/>
</g>
</svg>
