<?xml version="1.0" encoding="utf-8"?>
<!-- Generator: Adobe Illustrator 16.0.4, SVG Export Plug-In . SVG Version: 6.00 Build 0)  -->
<!DOCTYPE svg PUBLIC "-//W3C//DTD SVG 1.1//EN" "http://www.w3.org/Graphics/SVG/1.1/DTD/svg11.dtd">
<svg version="1.1" id="Layer_1" xmlns="http://www.w3.org/2000/svg" xmlns:xlink="http://www.w3.org/1999/xlink" x="0px" y="0px"
	 width="100px" height="100px" viewBox="0 0 100 100" enable-background="new 0 0 100 100" xml:space="preserve">
<path fill="#010101" d="M78.902,70.119l1.798,1.477c-0.017,0.237-0.418,0.682-0.569,0.82c-0.266,0.234-0.433,0.509-0.802,0.328
	c-0.373-0.18-0.257-0.28-0.323-1.141L78.902,70.119z M81.273,70.929l-0.898-0.621c-0.219-0.146-0.736-0.557-0.936-0.618v-0.477
	c0.332,0,0.818-0.041,1.121-0.085c0.385-0.058,0.668-0.024,1.035,0.085C81.593,69.496,81.346,70.521,81.273,70.929z M79.262,68.026
	c0.479-0.42,1.161-1.143,1.687-1.339c0.089-0.033,0.228-0.06,0.329-0.091c0.175,0.347,0.231,0.354,0.298,0.893
	c0.116,0.934,0.075,0.773-0.298,0.773c-0.291,0-0.633,0.091-0.937,0.098c-0.306,0.005-0.614,0.095-0.935,0.095L79.262,68.026z
	 M41.445,61.464c0.409,0,1.288,0.307,1.729,0.425c0.535,0.142,0.479,0.062,0.524,0.306c0.109,0.574,0.099,0.643,0.269,1.31
	c0.193,0.765,0.46,1.665,0.726,2.369c0.476,1.261,1.109,2.521,1.866,3.521c0.575,0.764,1.011,1.221,1.784,1.639
	c0.506,0.271,1.543,0.951,2.09,1.275l2.769,1.663c1.067,0.701,2.431,1.416,3.473,2.112c0.234,0.154,0.474,0.261,0.694,0.41
	c0.229,0.15,0.46,0.255,0.695,0.41c0.436,0.291,1.26,0.807,1.664,1.131l0.604,0.529c0.129,0.127,0.194,0.176,0.233,0.402
	c-0.327,0.646-0.959,0.825-1.211,1.82c-0.133,0.539-0.123,0.938-0.045,1.453c0.067,0.459,0.129,0.974,0.213,1.434
	c-0.385,0-0.67-0.044-1.08-0.044l-1.067-0.063c-1.303-0.236-4.222,0.31-5.271-0.399c-0.39-0.261-0.354-0.306-0.436-0.949
	c-0.096-0.78-0.375-1.528-0.607-2.144c-0.148-0.396-0.629-1.515-0.839-1.883c-0.353-0.619-0.73-1.386-1.16-2.13
	c-0.64-1.106-1.393-2.125-2.218-3.01c-0.455-0.491-0.887-0.815-1.436-1.099c-0.225-0.117-0.58-0.952-0.748-1.243l-1.776-3.216
	c-0.052-0.088-0.071-0.107-0.129-0.21c-0.514-0.903-2.647-4.329-3.329-4.539c0.072-0.129,0.749-0.615,0.924-0.727
	C40.61,61.86,41.191,61.464,41.445,61.464L41.445,61.464z M28.684,61.702c0,0.152,0.09,0.55,0.132,0.681
	c0.231,0.724,0.599,1.259,0.956,1.826l0.664,0.879c0.082,0.097,0.114,0.105,0.198,0.212c0.134,0.175,0.215,0.266,0.366,0.422
	c0.142,0.146,0.208,0.243,0.354,0.389c0.687,0.673,1.196,1.224,1.953,1.889l0.822,0.723c0.081,0.079,0.119,0.103,0.198,0.164
	l3.093,2.565c0.253,0.222,2.967,2.561,3.162,2.947c-0.093-0.012-0.976-0.398-1.235-0.505c-0.152-0.063-0.277-0.142-0.422-0.202
	c-0.143-0.062-0.268-0.109-0.414-0.166c-0.97-0.375-1.97-0.855-2.982-1.24c-0.292-0.11-0.563-0.237-0.846-0.353l-2.543-1.058
	c-0.282-0.113-0.573-0.213-0.863-0.333c-0.28-0.118-0.537-0.228-0.852-0.349c-0.803-0.304-1.749-0.735-2.559-1.037l-3.436-1.354
	c-1.263-0.493-3.029-1.205-4.251-1.744l-2.525-1.081c-0.278-0.117-0.539-0.256-0.826-0.383c-0.353-0.157-1.692-0.776-2.03-0.975
	c-0.189-0.114-1.138-0.602-1.138-0.729c0-0.451,0.198-0.968,0.334-1.27c0.092-0.202,0.157-0.326,0.262-0.512
	c0.324-0.569,0.879-1.404,1.279-1.826l0.692-0.841l1.475-1.571c0.41-0.428,1.51-1.548,1.889-1.876
	c0.262-0.226,0.506-0.488,0.77-0.741c0.247-0.233,0.565-0.475,0.769-0.741l2.196-4.132l1.693-2.99
	c0.298-0.517,1.111-1.743,1.423-2.065c0.198-0.204,0.4-0.386,0.672-0.446c0.426-0.094,1.707,0.44,2.124,0.687
	c0.814,0.484,1.013,0.604,1.785,1.111c1.559,1.022,4.96,3.77,4.96,5.752c0,0.164-0.203,0.786-0.271,0.874
	c-0.018,0.027-1.704,1.156-2.123,1.523c-0.581,0.506-0.725,0.553-1.406,1.23c-0.195,0.195-0.364,0.369-0.55,0.554
	c-0.168,0.171-0.333,0.404-0.497,0.584c-0.771,0.812-1.69,2.282-2.091,3.462C28.862,60.194,28.684,60.933,28.684,61.702
	L28.684,61.702z M7.402,62.271c0,0.763,0.016,1.197,0.275,1.871c0.32,0.836,0.917,1.602,1.583,1.949
	c1.011,0.527,2.001,0.295,2.879-0.498c0.304-0.273,0.563-0.63,0.805-0.979c0.276-0.397,0.351-0.112,1.17,0.19
	c0.683,0.252,1.346,0.584,2.03,0.834c1.019,0.377,1.982,0.87,3.011,1.245c0.688,0.253,1.339,0.581,2.026,0.841
	c0.958,0.364,2.541,1.021,3.506,1.446l1.506,0.626c0.328,0.118,0.663,0.29,1.015,0.415c0.175,0.065,0.31,0.129,0.489,0.21
	c0.182,0.082,0.358,0.143,0.522,0.212c1.334,0.592,2.691,1.075,4.026,1.666l1.016,0.414c0.672,0.297,1.33,0.539,1.995,0.833
	c1.335,0.589,2.69,1.074,4.026,1.667c0.154,0.067,0.311,0.146,0.487,0.21c0.623,0.234,0.917,0.216,1.091,0.751
	c0.288,0.874-3.013,1.81-3.013,3.405c0,0.5,0.289,0.979,0.493,1.3c0.136,0.211,0.328,0.423,0.442,0.649
	c-0.169,0.004-0.309,0.049-0.539,0.047l-1.114,0.049c-0.183,0-0.397-0.016-0.576,0l-2.266,0.093c-0.228,0-0.299,0.053-0.538,0.05
	c-0.191,0-0.384,0-0.576,0c-1.121-0.002-2.277,0.145-3.378,0.145l-2.229,0.095C26.679,82,25.662,82.085,24.725,82.1
	c-0.212,0.005-0.296,0.053-0.538,0.051l-2.292,0.062c-0.917,0.164-3.385,0.016-4.024-0.837c-0.061-0.082-0.037-0.07-0.094-0.16
	l-0.736-1.072c-0.215-0.306-0.413-0.636-0.604-0.962c-0.086-0.149-0.12-0.213-0.231-0.312c-0.221,0.197-0.364,0.481-0.518,0.789
	c-0.55,1.099-0.213,2.731,0.418,3.576c1.589,2.127,3.003,1.723,5.383,1.723l3.307-0.049c0.402,0,0.693-0.049,1.116-0.049
	c0.725,0,1.528,0.028,2.194-0.043c0.676-0.072,1.614,0.104,2.248-0.023c0.698-0.141,1.487,0.07,2.202-0.035
	c0.653-0.098,1.581,0.064,2.224-0.053c0.626-0.113,1.551,0.07,2.187-0.055c0.691-0.14,1.554,0.028,2.214-0.07
	c0.668-0.101,1.533,0.053,2.192-0.047c0.715-0.107,1.544,0.104,2.24-0.035c0.51-0.102,1.637-0.021,2.213-0.02
	c0.373,0,0.672-0.05,1.078-0.05c0.384,0,0.767,0,1.15,0c0.034,0.185,0.104,0.331,0.173,0.487c0.625,1.365,1.075,1.988,2.524,1.988
	h2.981c0.478,0,0.853-0.047,1.297-0.047c0.931,0,1.757-0.051,2.66-0.051c0.451,0,0.812-0.048,1.293-0.046
	c0.455,0,0.843-0.051,1.33-0.046c0.252,0,0.35-0.053,0.61-0.049c0.861,0.004,1.767-0.094,2.627-0.098
	c0.237,0,0.372-0.048,0.646-0.048c0.895,0.007,1.705-0.097,2.591-0.093l2.587-0.145c0.273,0.004,0.391-0.053,0.646-0.049
	c0.26,0.002,0.443-0.011,0.652-0.041c0.201-0.028,0.438,0.012,0.643-0.004c0.373-0.029,0.916-0.1,1.295-0.1
	c0.211,0,0.479,0.021,0.682,0c0.846-0.096,1.721-0.126,2.557-0.141c0.219-0.002,0.348-0.051,0.609-0.047
	c0.271,0,0.422-0.045,0.646-0.052c0.457-0.006,0.869-0.014,1.33-0.046l1.258-0.096c0.65-0.012,1.324-0.024,1.942-0.092
	c0.216-0.023,0.466,0.008,0.685,0c0.852-0.032,1.75-0.148,2.586-0.146l1.279-0.069c0.308-0.062,2.785-0.121,3.25-0.121
	c0.267,0.002,0.433-0.041,0.646-0.049c0.228-0.009,0.463,0.012,0.688,0.008c0.246-0.01,0.258-0.166,0.428-0.34
	c0.135-0.133,0.199-0.25,0.345-0.397c0.315-0.322,0.594-0.713,0.888-1.062c0.117-0.142,0.135-0.07,0.17-0.248
	c-0.248,0-0.373,0.036-0.574,0.045c-0.191,0.008-0.42-0.021-0.606,0.008c-0.692,0.102-3.058,0.185-3.601,0.182
	c-0.407-0.001-0.746,0.047-1.188,0.047l-2.403,0.146c-0.836,0-1.567,0.098-2.412,0.094c-0.252-0.003-0.356,0.044-0.572,0.048
	c-0.215,0.005-0.436-0.001-0.647-0.001c-0.458,0-1.993,0.045-2.411,0.094c-0.8,0.088-1.713-0.1-2.451,0.035
	c-0.407,0.072-3.472,0.014-4.09,0.014c-0.105,0-0.435-0.721-0.502-0.854c-0.605-1.209-1.281-2.36-1.957-3.499
	c-0.336-0.564-0.713-1.098-1.043-1.667c-0.162-0.274-0.382-0.528-0.551-0.795c-0.875-1.384-2.54-3.308-3.781-4.121
	c-0.432-0.281-0.727-0.461-1.054-0.892c-0.594-0.782-1.796-2.026-2.444-2.852l-0.591-0.738c-0.112-0.146-0.19-0.198-0.306-0.354
	l-1.496-1.828c-0.323-0.341-0.616-0.71-0.939-1.038c-0.111-0.112-0.194-0.218-0.317-0.341c-0.125-0.121-0.188-0.212-0.317-0.34
	c-0.068-0.069-0.096-0.09-0.169-0.157c-0.505-0.464-0.995-0.989-1.532-1.396c-0.361-0.274-0.729-0.577-1.101-0.826l-0.788-0.479
	c-0.22-0.116-0.619-0.385-0.842-0.407l-0.038-1.615c-0.019-0.86,0.044-1.651-0.054-2.496c-0.073-0.637-0.23-1.622-0.268-2.214
	c0.188,0.021,1.022,0.517,1.234,0.647c0.396,0.249,1.193,0.642,1.656,0.9c0.156,0.088,0.291,0.132,0.439,0.225
	c0.538,0.337,1.1,0.604,1.648,0.909c0.285,0.162,0.537,0.282,0.818,0.444c0.764,0.434,2.691,1.514,3.312,1.804l2.504,1.351
	c1.082,0.641,2.219,1.241,3.326,1.825c0.153,0.08,0.278,0.137,0.411,0.216l2.904,1.575c1.379,0.751,2.783,1.481,4.149,2.266
	c0.581,0.33,4.009,2.229,4.196,2.246c0.021,0.338,0.404,2.819,0.442,2.98c0.116,0.449,0.243,0.833,0.515,1.086
	c0.233,0.221,0.836,0.044,1.146-0.052c0.681-0.21,1.211-0.734,1.581-1.476c0.088-0.178,0.186-0.332,0.249-0.529
	c0.229-0.717,0.382-1.346,0.382-2.201c0-1.066-0.138-2.354-0.773-2.921c-0.639-0.567-0.821-0.476-1.428,0.058
	c-0.217,0.193-0.408,0.453-0.623,0.648c-0.272,0.249-1.129,0.978-1.453,0.978c-0.054,0-2.457-1.338-2.754-1.534
	c-0.346-0.23-0.742-0.44-1.106-0.633l-2.188-1.24c-1.273-0.749-2.57-1.467-3.854-2.179c-0.195-0.109-0.341-0.21-0.55-0.317
	c-0.938-0.492-1.832-1.073-2.768-1.572c-0.931-0.494-1.839-1.078-2.768-1.57c-1.297-0.683-2.559-1.504-3.852-2.18l-1.664-0.938
	c-0.113-0.065-0.158-0.104-0.273-0.165l-1.908-1.088c-0.188-0.11-0.357-0.19-0.561-0.305c-0.512-0.284-2.053-1.132-2.463-1.404
	c-0.136-0.092-0.133-0.097-0.172-0.295c-0.062-0.315-0.115-0.535-0.181-0.808l-0.377-1.595c-0.226-0.896-0.472-1.762-0.784-2.625
	c-0.043-0.118-0.088-0.207-0.131-0.348c-0.143-0.464-0.346-0.94-0.569-1.339c-0.071-0.124-0.097-0.194-0.157-0.315
	c-0.157-0.328-0.833-1.473-1.075-1.715c-0.387-0.389-0.577-0.763-1.116-1.142c0.01-0.543,0.144-1.115,0.144-1.76
	c0-1.322-0.528-2.474-0.97-3.567c-0.335-0.821-0.806-1.573-1.25-2.293c-0.337-0.546-0.685-1.051-1.061-1.545
	c-0.085-0.112-0.094-0.141-0.165-0.258c-0.185-0.305-1.437-1.868-1.705-2.165l-1.386-1.591c-0.807-0.868-1.651-1.827-2.523-2.559
	c-0.737-0.621-1.902-1.713-2.803-1.713c-1.128,0-2.289,0.318-3.194,0.718c-0.208,0.092-0.427,0.178-0.641,0.292l-1.211,0.681
	c-0.235,0.128-0.384,0.256-0.606,0.388c-0.769,0.452-1.466,1.108-2.184,1.677c-0.352,0.276-0.693,0.606-1.025,0.926
	c-0.514,0.491-0.989,0.994-1.477,1.517l-0.47,0.519c-0.421,0.521-0.528,0.552-0.86,1.143c-0.25,0.442-0.469,0.909-0.671,1.396
	l-0.458,1.107c-0.26,0.619-0.498,1.298-0.702,1.974c-0.207,0.681-0.433,1.344-0.609,2.045l-0.749,3.05
	c-0.216,0.839-0.412,1.73-0.655,2.56c-0.087,0.295-0.137,0.549-0.216,0.854c-0.255,0.968-0.568,1.911-0.863,2.854
	c-0.093,0.299-0.198,0.493-0.331,0.751c-0.067,0.127-0.113,0.208-0.18,0.331l-1.495,2.586c-0.073,0.122-0.123,0.188-0.196,0.31
	c-0.318,0.531-0.646,1.096-1.001,1.577c-0.795,1.082-1.252,1.854-2.182,2.82l-0.493,0.488c-0.664,0.649-1.542,1.25-2.338,1.521
	C9.523,59.595,8.624,59.87,8,60.705C7.686,61.117,7.402,61.627,7.402,62.271L7.402,62.271z"/>
<path fill="#010101" d="M20.128,20.328c0,1.052,0.129,2.25,0.493,3.153l0.214,0.572c0.078,0.204,0.134,0.373,0.216,0.569
	c0.083,0.197,0.436,0.881,0.543,1.041c0.345,0.521,0.253,0.4,0.647,0.856c0.158,0.186,0.619,0.577,0.813,0.683
	c0.18,0.097,0.284,0.177,0.457,0.252c1.28,0.561,2.613,0.555,3.812-0.272c1.407-0.97,2.469-2.256,2.849-4.411
	c0.234-1.333,0.163-2.854-0.164-4.149c-0.048-0.194-0.099-0.438-0.164-0.639c-0.058-0.185-0.129-0.363-0.202-0.541l-0.369-0.75
	c-0.905-1.655-2.278-2.786-3.897-2.786c-1.034,0-1.58,0.041-2.516,0.667c-0.132,0.089-0.251,0.148-0.385,0.252
	c-0.792,0.619-0.474,0.421-1.038,1.003c-0.095,0.099-0.067,0.08-0.137,0.2c-0.328,0.564-0.533,0.786-0.796,1.656
	C20.284,18.405,20.128,19.346,20.128,20.328z"/>
</svg>
