<?xml version="1.0" encoding="utf-8"?>
<!-- Generator: Adobe Illustrator 16.0.4, SVG Export Plug-In . SVG Version: 6.00 Build 0)  -->
<!DOCTYPE svg PUBLIC "-//W3C//DTD SVG 1.1//EN" "http://www.w3.org/Graphics/SVG/1.1/DTD/svg11.dtd">
<svg version="1.1" id="Layer_1" xmlns="http://www.w3.org/2000/svg" xmlns:xlink="http://www.w3.org/1999/xlink" x="0px" y="0px"
	 width="100px" height="99.993px" viewBox="-0.214 0 100 99.993" enable-background="new -0.214 0 100 99.993" xml:space="preserve"
	>
<path d="M19.627,42.408c-0.368,0.756-0.634,1.596-0.777,2.496c-0.062,0.451-0.103,0.9-0.103,1.35l0.328,20.622l-7.121,15.343
	c-0.246,0.451-0.429,0.982-0.511,1.535c-0.389,2.536,1.35,4.89,3.887,5.279c1.964,0.306,3.847-0.697,4.747-2.354l7.836-16.776
	c0.164-0.39,0.307-0.799,0.368-1.249c0.02-0.204,0.041-0.429,0.041-0.634l-0.061-12.74l12.03,5.253l1.943,12.46
	c0.39,1.82,1.883,3.274,3.827,3.58c2.536,0.369,4.889-1.37,5.276-3.888c0.062-0.428,0.062-0.859,0.021-1.267l-2.372-15.034
	c-0.287-1.453-1.249-2.7-2.599-3.336L35.625,48.26l6.854-11.928l3.396,4.317c0.348,0.389,0.798,0.716,1.31,0.921l12.95,3.785
	c1.718,0.368,3.478-0.532,4.152-2.189c0.758-1.883-0.143-4.011-2.004-4.768c-0.062-0.02-0.123-0.041-0.185-0.061l-11.253-3.315
	l-8.467-10.168c-1.27-1.351-2.968-2.312-4.931-2.619c-3.437-0.512-6.69,1.125-8.41,3.907L19.627,42.408z"/>
<path d="M56.779,71.968l-0.817,6.179l-22.279,5.422l0.204,3.826h54.339c1.923,0,3.479-1.555,3.479-3.477l-0.062-73.244l-7.447-1.739
	l-4.274,19.252l-7.142,3.008l-6.343,17.758l6.016,13.582l-1.699,5.218L56.779,71.968z"/>
<path d="M41.641,21.334c3.826,0,6.935-3.11,6.935-6.936c0-3.826-3.109-6.936-6.935-6.936c-3.827,0-6.936,3.11-6.936,6.936
	C34.705,18.225,37.816,21.334,41.641,21.334z"/>
<path d="M27.852,22.419c0.531-0.941,0.224-2.169-0.736-2.701l-3.355-1.964c-0.962-0.532-2.168-0.225-2.721,0.736L10.685,36.352
	c-0.532,0.941-0.225,2.148,0.736,2.701l3.376,1.944c0.941,0.552,2.148,0.225,2.701-0.716L27.852,22.419z"/>
</svg>
