<?xml version="1.0" encoding="utf-8"?>
<!-- Generator: Adobe Illustrator 16.0.4, SVG Export Plug-In . SVG Version: 6.00 Build 0)  -->
<!DOCTYPE svg PUBLIC "-//W3C//DTD SVG 1.1//EN" "http://www.w3.org/Graphics/SVG/1.1/DTD/svg11.dtd">
<svg version="1.1" id="Calque_1" xmlns="http://www.w3.org/2000/svg" xmlns:xlink="http://www.w3.org/1999/xlink" x="0px" y="0px"
	 width="100px" height="100px" viewBox="0 0 100 100" enable-background="new 0 0 100 100" xml:space="preserve">
<g>
	<path d="M11.242,25.021v41.084c0,4.311,3.494,7.804,7.803,7.804h2.868l6.612,6.61c1.464,1.464,3.449,2.285,5.516,2.285
		c0.031,0,0.063,0,0.096-0.003c2.102-0.023,4.105-0.896,5.554-2.418l6.168-6.475h35.12c4.307,0,7.803-3.493,7.803-7.803V25.021
		c0-4.309-3.496-7.803-7.803-7.803H19.044C14.735,17.218,11.241,20.712,11.242,25.021z M19.044,25.021h61.932v41.084H42.513
		l-8.474,8.896l-8.897-8.896h-6.098V25.021z"/>
	<path d="M64.315,45.556c0-2.154-1.746-3.901-3.899-3.901h-6.504v-6.503c0-2.153-1.746-3.9-3.902-3.9c-2.154,0-3.9,1.747-3.9,3.9
		v6.503h-6.503c-2.155,0-3.901,1.748-3.901,3.901c0,2.155,1.747,3.901,3.901,3.901h6.503v6.503c0,2.154,1.747,3.901,3.9,3.901
		c2.156,0,3.902-1.747,3.902-3.901v-6.503h6.504C62.569,49.458,64.315,47.713,64.315,45.556z"/>
</g>
</svg>
