<svg xmlns="http://www.w3.org/2000/svg" xmlns:xlink="http://www.w3.org/1999/xlink" version="1.1" x="0px" y="0px" width="100px" height="100px" viewBox="0 0 100 100" enable-background="new 0 0 100 100" xml:space="preserve">
<g id="Captions">
</g>
<g id="Your_Icon">
	<g>
		<path fill="#000000" d="M9.08,68.054c0,3.644,0,3.644,0,3.644l0,0c0.229,2.959,3.416,5.008,7.058,5.008    c3.87,0,6.83-2.049,7.058-4.781c0.229,2.732,3.416,4.781,7.058,4.781c3.871,0,6.83-2.049,7.059-4.781    c0.227,2.732,3.414,4.781,7.058,4.781c3.87,0,7.058-2.049,7.058-5.008c0.227,0,0.227,0,0.227,0c0,2.959,3.188,5.008,7.059,5.008    c3.643,0,6.83-2.049,7.058-5.008l0,0c0.228,2.959,3.188,5.008,7.058,5.008c3.642,0,6.829-2.049,7.058-5.008l0,0    c0.229,2.959,3.416,5.008,7.058,5.008c3.87,0,6.83-2.049,7.058-5.008l0,0c0-3.644,0-3.644,0-3.644H9.08z"/>
		<path fill="#000000" d="M94,77.388L94,77.388c-0.228,2.733-3.188,5.01-7.058,5.01c-3.642,0-6.829-2.276-7.058-5.01l0,0    c-0.229,2.733-3.416,5.01-7.058,5.01c-3.87,0-6.83-2.276-7.058-5.01l0,0c-0.228,2.733-3.415,5.01-7.058,5.01    c-3.871,0-7.059-2.276-7.059-5.01c-0.227,0-0.227,0-0.227,0c0,2.733-3.188,5.01-7.058,5.01c-3.644,0-6.831-2.276-7.058-5.01    c-0.229,2.733-3.188,5.01-7.059,5.01c-3.642,0-6.829-2.276-7.058-5.01c-0.228,2.733-3.188,5.01-7.058,5.01    c-3.642,0-6.829-2.276-7.058-5.01l0,0c0,6.604,0,6.604,0,6.604l0,0C9.309,86.724,12.496,89,16.138,89    c3.87,0,6.83-2.276,7.058-5.009C23.424,86.724,26.611,89,30.253,89c3.871,0,6.83-2.276,7.059-5.009    C37.538,86.724,40.726,89,44.369,89c3.87,0,7.058-2.276,7.058-5.009c0.227,0,0.227,0,0.227,0c0,2.732,3.188,5.009,7.059,5.009    c3.643,0,6.83-2.276,7.058-5.009l0,0C65.997,86.724,68.957,89,72.827,89c3.642,0,6.829-2.276,7.058-5.009l0,0    C80.113,86.724,83.301,89,86.942,89c3.87,0,6.83-2.276,7.058-5.009l0,0V77.388z"/>
		<polygon fill="#000000" points="26.611,60.086 23.65,64.64 13.861,64.64 14.544,61.224 26.611,60.086   "/>
		<path fill="#000000" d="M80.113,58.72c0,0-5.919-2.96-7.969-2.96c-1.595,0-15.026,1.821-18.897,2.504    c-4.781-6.146-11.383-14.57-12.065-14.798c-1.14-0.227-15.255,19.808-16.393,21.174c4.554,0,4.554,0,4.554,0    c10.699-13.888,10.699-13.888,10.699-13.888c5.921,8.423,5.921,8.423,5.921,8.423c-4.099,0.229-12.067,0.911-12.067,0.911    c-3.643,4.554-3.643,4.554-3.643,4.554c19.58,0,19.58,0,19.58,0c2.96,0,2.96,0,2.96,0c3.415,0,3.415,0,3.415,0    c1.821,0,1.821,0,1.821,0c20.035,0,20.035,0,20.035,0s1.592-0.229,2.049-0.456c0.228-0.455,0.454-1.138,0.454-1.138L80.113,58.72z    "/>
		<path fill="#000000" d="M90.585,60.312c0,2.277-1.821,4.099-3.87,4.099c-2.277,0-4.098-1.821-4.098-4.099    c0-2.275,1.82-4.097,4.098-4.097C88.764,56.216,90.585,58.037,90.585,60.312L90.585,60.312z"/>
		<path fill="#000000" d="M45.052,20.472c5.692-7.969,18.44-8.652,28.686-1.594c10.246,7.286,14.116,19.58,8.652,27.548"/>
		<polygon fill="#000000" points="52.793,50.751 50.744,48.247 65.77,27.074 68.273,28.667 52.793,50.751   "/>
	</g>
</g>
</svg>