<?xml version="1.0" encoding="utf-8"?>
<!-- Generator: Adobe Illustrator 16.0.4, SVG Export Plug-In . SVG Version: 6.00 Build 0)  -->
<!DOCTYPE svg PUBLIC "-//W3C//DTD SVG 1.1//EN" "http://www.w3.org/Graphics/SVG/1.1/DTD/svg11.dtd">
<svg version="1.1" id="Layer_1" xmlns="http://www.w3.org/2000/svg" xmlns:xlink="http://www.w3.org/1999/xlink" x="0px" y="0px"
	 width="100px" height="100px" viewBox="0 0 100 100" enable-background="new 0 0 100 100" xml:space="preserve">
<path d="M47.74,35.538c-0.015,2.686-2.474,5.576-5.66,5.576v45.526c0,6.482-8.812,6.482-8.826,0V41.114
	c-3.092,0-5.792-2.393-5.787-5.956V10.071c-0.006-2.177,3.146-2.261,3.167,0.085v18.54h2.62V9.986c0-2,3.035-2.129,3.042,0.085
	v18.624h2.701V10.028c0.02-2.109,2.969-2.193,2.956,0.085v18.583h2.705V10.028c-0.01-2.088,3.07-2.172,3.083,0.085L47.74,35.538
	L47.74,35.538z"/>
<path d="M71.222,15.899v70.742c0.011,6.318-8.816,6.227-8.826,0V58.555h-4.688V15.899C57.703,5.968,71.232,5.968,71.222,15.899
	L71.222,15.899z"/>
</svg>
