<?xml version="1.0" encoding="utf-8"?>
<!-- Generator: Adobe Illustrator 16.0.4, SVG Export Plug-In . SVG Version: 6.00 Build 0)  -->
<!DOCTYPE svg PUBLIC "-//W3C//DTD SVG 1.1//EN" "http://www.w3.org/Graphics/SVG/1.1/DTD/svg11.dtd">
<svg version="1.1" id="Layer_1" xmlns="http://www.w3.org/2000/svg" xmlns:xlink="http://www.w3.org/1999/xlink" x="0px" y="0px"
	 width="100px" height="100px" viewBox="0 0 100 100" enable-background="new 0 0 100 100" xml:space="preserve">
<polygon points="7.754,14.396 21.202,28.291 26.364,23.605 21.689,14.438 "/>
<path d="M68.374,53.323c2.543,0.707,5.273-0.748,5.999-3.358c0.698-2.57-0.788-5.27-3.348-5.996l-1.996-0.562l-2.58,9.338
	L68.374,53.323z"/>
<path d="M66.812,42.812l-16.1-4.586c-1.06-0.279-2.121,0.363-2.413,1.434l-1.512,5.44c-0.298,1.068,0.279,2.166,1.363,2.486
	l16.1,4.538L66.812,42.812z"/>
<path d="M69.352,58.271c-1.227-1.181-2.753-2.118-4.533-2.612l-19.516-5.524l0,0l-11.99-21.501
	c-0.632-1.111-1.647-1.995-2.962-2.357c-2.63-0.747-5.363,0.814-6.079,3.473c-0.358,1.262-0.188,2.549,0.38,3.64l15,26.594
	c0,0,1.226,1.994,4.316,3.02l27.27,7.728l12.645,12.976c0.421,0.446,0.97,0.788,1.627,0.979c1.905,0.535,3.896-0.617,4.453-2.521
	c0.361-1.349-0.069-2.768-1.017-3.646L69.352,58.271z"/>
<path d="M83.902,63.641l2.834,3.748l5.762-6.358l-4.866-2.74c0.458-3.445-1.652-6.784-5.041-7.751
	c-3.729-1.047-7.604,1.138-8.642,4.908c-1.057,3.788,1.124,7.687,4.854,8.735C80.573,64.694,82.378,64.414,83.902,63.641z"/>
</svg>
