<?xml version="1.0" encoding="utf-8"?>
<!-- Generator: Adobe Illustrator 16.0.4, SVG Export Plug-In . SVG Version: 6.00 Build 0)  -->
<!DOCTYPE svg PUBLIC "-//W3C//DTD SVG 1.1//EN" "http://www.w3.org/Graphics/SVG/1.1/DTD/svg11.dtd">
<svg version="1.1" id="Layer_1" xmlns="http://www.w3.org/2000/svg" xmlns:xlink="http://www.w3.org/1999/xlink" x="0px" y="0px"
	 width="100px" height="100px" viewBox="0 0 100 100" enable-background="new 0 0 100 100" xml:space="preserve">
<path d="M80.909,61.543v11.525h6.085v-17.23H18.948V30.909c0-1.667-1.337-3.032-3.024-3.032l0,0c-1.668,0-3.014,1.365-3.014,3.032
	v42.16h6.038V61.543H80.909z"/>
<path d="M28.237,43.061c3.023,0,5.468-2.445,5.468-5.478c0-3.014-2.445-5.459-5.468-5.459c-3.024,0-5.469,2.445-5.469,5.459
	C22.768,40.615,25.212,43.061,28.237,43.061z"/>
<path d="M87.09,51.307l-0.02-7.526c-0.02-2.389-2.027-4.037-4.359-4.321l-42.959-4.285c-0.085-0.019-0.161-0.057-0.236-0.057
	c-1.488,0-2.691,1.213-2.691,2.691v8.113H25.592c-1.507,0-2.71,1.214-2.71,2.692c0,1.498,1.204,2.692,2.71,2.692L87.09,51.307
	L87.09,51.307z"/>
</svg>
