<?xml version="1.0" encoding="utf-8"?>
<!-- Generator: Adobe Illustrator 16.0.4, SVG Export Plug-In . SVG Version: 6.00 Build 0)  -->
<!DOCTYPE svg PUBLIC "-//W3C//DTD SVG 1.1//EN" "http://www.w3.org/Graphics/SVG/1.1/DTD/svg11.dtd">
<svg version="1.1" id="Layer_1" xmlns="http://www.w3.org/2000/svg" xmlns:xlink="http://www.w3.org/1999/xlink" x="0px" y="0px"
	 width="100px" height="100px" viewBox="0 0 100 100" enable-background="new 0 0 100 100" xml:space="preserve">
<path d="M86.447,21.828C83.391,23.642,80,24.958,76.4,25.665c-2.886-3.07-7.001-4.99-11.555-4.99
	c-8.734,0-15.819,7.084-15.819,15.814c0,1.24,0.132,2.453,0.406,3.607c-13.151-0.659-24.814-6.956-32.611-16.527
	c-1.363,2.336-2.142,5.052-2.142,7.95c0,5.487,2.789,10.334,7.034,13.172c-2.593-0.08-5.035-0.792-7.169-1.973
	c0,0.066,0,0.128,0,0.197c0,7.672,5.457,14.062,12.696,15.522c-1.325,0.361-2.723,0.559-4.17,0.559c-1.011,0-2.004-0.103-2.97-0.286
	c2.016,6.284,7.854,10.864,14.785,10.985c-5.418,4.247-12.239,6.779-19.653,6.779c-1.276,0-2.542-0.087-3.774-0.224
	c7.005,4.49,15.324,7.107,24.257,7.107c29.106,0,45.019-24.108,45.019-45.022c0-0.684-0.012-1.367-0.049-2.045
	c3.096-2.23,5.773-5.016,7.891-8.206c-2.84,1.265-5.887,2.115-9.084,2.493C82.75,28.62,85.263,25.519,86.447,21.828z"/>
</svg>
